<svg xmlns="http://www.w3.org/2000/svg" viewBox="0 0 274.51 498.66"><defs><style>.cls-1{fill:#fff;}</style></defs><g id="Camada_2" data-name="Camada 2"><g id="Camada_1-2" data-name="Camada 1"><path class="cls-1" d="M20.06,46.7l3.16.19.23-1c-2.83-.78-6-1-8.41-2.48-2.84-1.66-5.57,0-8.31-.17l0-.87a7.07,7.07,0,0,1,1.44-.51c.65-.11,1.53.2,2-.12,3.32-2.51,6.19.22,9.25.67,1.89.27,3.76.7,5.66.91a3.66,3.66,0,0,0,2.38-.84c-6.32-.87-10.71-4.8-15.13-8.79,3.76,2.36,7.32,5.22,12.83,4L16.8,26.57c1.11-1.2,1.84-2.32.3-4.27-3.52-4.49-6.63-9.3-9.9-14-.32-.47-.56-1-.85-1.5l-.06.06c2.86,3,5.71,6,8.58,9A3.42,3.42,0,0,0,16.81,17a40.6,40.6,0,0,1-.53-4.75,71.41,71.41,0,0,1,.44-7.6,2.38,2.38,0,0,1,1.39-1.48c.26-.1,1.05.67,1.36,1.18,2,3.35,4,6.71,5.8,10.14A6.26,6.26,0,0,1,26,17.6c-.07,1.61.64,2.09,2.05,2l0-.05c-3.13,5.49-3.34,11.14-.87,17.54l1.21-3,.86-.07.51,4.27a21.39,21.39,0,0,0,3.17-14.36l.86-.22c1.23,2,2.77,3.89,3.62,6.05s1,4.64,1.59,7.3c3.09-4.51,2-13.77-.9-15.85l-1.72,2-.45-.32,2.71-4.18.92.13A77.89,77.89,0,0,1,41.81,28a71.94,71.94,0,0,1,.09,9.28c.43.14.63.28.72.23,2.93-1.7,3.49-1.43,3.92,2a29.15,29.15,0,0,1,.11,3.24c0,1.06-.32,2.19,1.34,2.47.37.07.68,1.17.8,1.84.22,1.18.28,2.38.42,3.67,3.59-1.58,4.41-3.62,2.84-6.45-2.13-3.84-1.92-5.83,2.4-8.45,3.49-2.11,3.61-4.37,2.79-7.83-1.1-4.69-1.62-9.51-2.35-14.29A4.18,4.18,0,0,1,57.61,9c3.23-1.43,6.44-2.52,10.11-1.34a5.13,5.13,0,0,1,3.85,4.11C74.39,25.44,77.1,39.16,80,52.83c1.58,7.4,3.44,14.74,5.27,22.09.53,2.14,1.41,4.19,2,6.31A24,24,0,0,1,88,84.4c.57,3.83,1.11,7.66,1.67,11.49,0,.24.12.48.16.73.64,4,.64,4,4.86,4.08,4.83.07,9.67,0,14.5.15a45.65,45.65,0,0,1,10.32,1.6,39.59,39.59,0,0,1-4.07.31c-7.24-.18-14.49-.36-21.73-.66-4-.17-4.1-.3-5,3.55-.57,2.4-.52,5-1.27,7.29-1,3.23-2.64,6.26-3.78,9.46a8.29,8.29,0,0,0-.53,4.37c.42,1.84,2.21,1.79,3.9,1.8,11.08.07,22.16.44,33.24.33,14-.13,28-1,42-.84a52.3,52.3,0,0,0,20.62-3.85c2.75-1.12,5.92-1.24,8.89-1.81l.15.66-14,3.76a12.13,12.13,0,0,1,.34,1.49c0,.5,0,1,0,1.51a11.46,11.46,0,0,1-1.55,0c-1-.17-2.1-.76-3-.53-1.45.37-3.44,1-3.92,2-.4.88,1.05,2.6,1.68,3.95l.79,1.66c-3.26-.22-6.07-.71-8.49-2.36-.55-.38-.49-1.64-.83-2.91-4.47,1-9.3,1.82-13.08,5.22a3.47,3.47,0,0,0-.47,3c1,3.49,2.27,6.93,3.57,10.34.25.65,1.3,1.59,1.69,1.46a3.49,3.49,0,0,0,1.85-1.78c1.42-3.15,2.07-3.67,4.42-1.26,3.89,4,8.46,4.53,13.54,4.34a4,4,0,0,1,3.73,5.39c-.73,2-.67,3.46,1.16,4.84a2.62,2.62,0,0,1,.38,2.43c-1.19,2.73-1.07,3.11,1.81,3.48,0,.15,0,.4-.05.42-3.57,1.24-4.63,3.83-4.84,7.48-.14,2.57-1.55,5.06-2.3,7.61a43.63,43.63,0,0,1-5.9,12.09c-1.3,1.94-2.11,4.25.61,6.1a3,3,0,0,1,.92,2.21c.05,2.18,1.05,3.3,3.13,3.89a4,4,0,0,1,2.4,1.9c.81,2,1.87,1.67,3,.58,3.49-3.45,7.14-6.78,10.27-10.54,5.37-6.46,10.67-13,15.48-19.9,5.29-7.58,12.1-14,16.94-21.82,1.93-3.12,4.89-5.15,6.88-8.12,1.38-2.06,2-3.88.65-6.19s-2.31-4.75-5.06-5.94c-.94-.41-1.23-2.26-2.18-2.76-5.46-2.91-11.05-5.56-17.44-5.77-2-.06-2.77.71-2.32,2.7.21.94.31,1.91.47,2.87l-.92.14a17.81,17.81,0,0,1-.25-2.29c.07-2.91-.87-3.74-3.82-3.53a8,8,0,0,1-2.43-.81l4.64-2.27c1.21.39,2.7,1.29,4.17,1.28,13.41-.09,26.82-.28,40.22-.64a7,7,0,0,0,4.54-2.08c5-5.71,9.75-11.6,14.43-17.55.74-.95,1.31-2.93.82-3.73s-2.39-1.08-3.71-1.17c-3.73-.26-7.48-.32-11.22-.46-4.25-.15-8.5-.27-12.74-.45-1.33-.06-2.66-.28-4-.42l0-.77c.85-.08,1.7-.2,2.56-.23,7.57-.29,15.14-.65,22.72-.81,3.4-.07,6.8.26,10.21.41a6,6,0,0,0,2.22,0,12.11,12.11,0,0,0,2.38-1.6c-.84-.65-1.65-1.82-2.51-1.86-5.49-.26-11-.42-16.49-.31-11.73.22-23.46.74-35.2.91-3.61,0-7.23-.64-11.1-1,14-.3,27.73-.65,41.46-.87,7.22-.12,14.45,0,21.67,0a7.28,7.28,0,0,1,2.68.42c2.26.93,2.66,3,1.06,4.81-6.79,7.76-13.7,15.42-20.31,23.32-8.13,9.69-15.94,19.64-24,29.39-7.37,8.92-15.07,17.57-22.29,26.6-6.19,7.73-11.86,15.86-17.85,23.75-5.34,7-10.93,13.86-16.16,21-4.74,6.43-8.29,13.5-9.35,21.54-.36,2.71-.24,5.48-.4,8.21-.79,13.31-1.68,26.6-2.37,39.91-.49,9.47-.66,19-1.09,28.44-.36,7.82-1,15.62-1.35,23.44-.27,6.06-.22,12.13-.46,18.19-.66,16.31-1.82,32.61-2,48.93-.16,17.31.51,34.63,1.06,51.94.08,2.6,1.47,5.16,1.72,8-1.35-3-2.77-5.87-4-8.86-1.75-4.2-4.89-4.74-7.62-1.08a35,35,0,0,0-3.33,5.84c-3,6.13-6.92,10.41-14.47,10.87a66.7,66.7,0,0,0-9.8,1.61,11.21,11.21,0,0,0-2.12,1c1.79,2,6-1.51,5.93,3.17-1.36-1.26-2.6-1.39-4.12-.05-.76.67-2.08.71-3.23,1.07.13.32.19.7.3.71,2.14.33,4.45,1.25,6.39.74,2.87-.74,5.14.95,7.78.48l0,.78c-.9.11-1.81.29-2.71.31-8.24.15-16.48.26-24.72.43-1.92,0-3.85.23-6.4.39a12.58,12.58,0,0,0-1.48-1.92,2.34,2.34,0,0,0-1.73-.68c-.33.05-.45,1.06-.85,1.43a4.22,4.22,0,0,1-2.09,1.33c-5.49.36-11,.57-16.47.83a4.49,4.49,0,0,0-2,.21,9.65,9.65,0,0,0-2.65,2.27c-.14.17.88,1.75,1.55,1.9.85.2,1.88-.39,3.13-.72,2.48,2.34,3.43,2,4-.19,1.08.68,2.19,1.45,3.37,2.07.18.09.72-.48,1.29-.88l-2.32-1.58c.63-.42,1.08-1,1.53-1,19.59,0,39.17,0,58.8.45-5.49.09-11,.25-16.46.25a108.08,108.08,0,0,0-16.1,1.67l0,1.09c2.38,0,4.77.08,7.14,0,2.82-.13,5.63-.46,8.45-.62,8.23-.44,16.47-1.07,24.71-1.18,5.62-.08,11.24.74,16.87.87,7.35.16,14.71,0,22.06,0v-.82H165.52l0-.78a13,13,0,0,1,1.74-.23c11.67,0,23.33,0,35,.06,1,0,2.69-.74,2.68,1.45a2.76,2.76,0,0,0,1.33.29c7.49-.24,15-.48,22.47-.83.86,0,1.68-.82,2.52-1.26-.54-.85-.9-2.1-1.67-2.46A11,11,0,0,0,225,491c-10.16-.07-20.33,0-30.49,0q-5.11,0-10.23-.11c-1.12,0-2.24-.21-3.36-.31l0-1,17.68-1.28.22-1.35a43.69,43.69,0,0,0-5.75-2c-8.63-1.78-17.31-3.37-25.94-5.13-2.16-.44-4.37-1-5.8-3.89a27.91,27.91,0,0,0,4.61,2c6.08,1.34,12.21,2.5,18.31,3.75,9,1.85,17.91,3.81,26.9,5.56,3.83.75,7.75,1,11.61,1.62a61.57,61.57,0,0,1,7.52,1.57,3.81,3.81,0,0,1,2.92,4.38c-.28,2.31-2.23,2.22-3.86,2.26-13.23.3-26.47.62-39.7.79-7.67.1-15.34,0-23-.13-6-.11-11.94-.75-17.9-.67-8.73.11-17.45.75-26.18,1-11.48.32-23,.56-34.45.66-5.49.05-11-.23-16.46-.5-2-.09-4.24-.35-4.54-3s1.49-4.05,4.5-4.65c11.33-2.28,22.63-4.71,34-7,8.24-1.68,16.44-3.55,24.75-4.79,6.69-1,10.48-4.94,12.27-10.85a37.63,37.63,0,0,0,1.38-11.3c-.34-22.07-.89-44.14-1.38-66.21-.22-10-.3-20-.72-30-.36-8.32-1.32-16.6-1.69-24.92-.58-13.06-.66-26.15-1.38-39.21-.47-8.71-1.69-17.39-2.56-26.08-.27-2.74-.72-5.48-.74-8.21-.09-12.08-3.9-23-9.61-33.5-5-9.14-11.56-17.1-18.1-25.06-12.52-15.24-25.45-30.15-38-45.39-11.36-13.83-22.42-27.92-33.6-41.9q-5.28-6.59-10.48-13.24a28.06,28.06,0,0,1-1.64-2.7c4.39,1.38,8.19.79,12,.16.56-.09,1.45-.4,1.62-.18,1.65,2.12,3.59.75,5.49.73,2.55,0,5.11.77,7.67.86,4.48.15,9,0,13.44,0v-1.14a47.08,47.08,0,0,1-5.18,0c-5.93-.62-11.86-1.34-17.77-2.12-.57-.08-1.45-.83-1.48-1.31a3.1,3.1,0,0,1,.93-2.09,11.35,11.35,0,0,1,2.45-1.48c-2.33-1.25-4.3-2.26-6.23-3.35s-2.87-3.09-3.1-5.9c1.72.34,3.22.61,4.7.93,2.55.55,5.09,1,7.53-.42,1.4-.83,1.5-2.84.09-3-4.9-.6-9.84-.85-14.77-1.18-.32,0-.66.39-1.71,1.06l2.94,1.9-.33.49-5.57-3.08v-.8c1.43-.46,2.84-1,4.28-1.36,1.63-.45,1.67-1.39.54-2.26a8.83,8.83,0,0,0-3.67-1.89c-4.88-.81-8.43-3.71-11.81-7-.14-.14-.08-.47-.17-1H24l.39-.61a19.7,19.7,0,0,0-2.07-2c-1-.69-2.47-.88-1.79-2.71.06-.17-1-.94-1.63-1.16-2.39-.84-4.83-1.57-7.7-2.48,3.45-3.62,7.86-3.12,12.29-4.34-5.17-2.09-9.57-4.3-13.31-7.87,2.45-1.58,7.22-.85,10,1.2l-6.42-1-.14.74A27.43,27.43,0,0,0,29,52.16a10.68,10.68,0,0,0-.65-2.73c-.39-.68-.77-2.21-2.06-.68a1.48,1.48,0,0,1-1.3.11C23.34,48.19,21.71,47.43,20.06,46.7ZM163.68,171.76c0-.57.15-1.28-.13-1.66a29.78,29.78,0,0,0-2.57-2.81c-1.79,1-1.79,1,.48,5l2.31-.59c-.07.63-.14,1.26-.22,1.88a12.63,12.63,0,0,0,2.4-.95c.33-.22.35-.92.51-1.41a15.32,15.32,0,0,0-2,0C164.16,171.17,163.92,171.54,163.68,171.76ZM61.77,71.94v4.78c2.9-3.26,3.66-6.61,1.95-9.82l-2,5.12c-.35-3.38-.69-6.76-1.06-10.42-4.26,2.25-7.54,9.78-6,13.29L56.41,72a5.14,5.14,0,0,1-.16,2.29c-.2.89-.45,1.77-.58,2.67-.46,3,.1,3.67,3.13,3.93v4.52l1.92-1.74c.12,1,.22,1.64.26,2.29.11,1.91.13,3.83.34,5.73a3.14,3.14,0,0,0,1,1.52c.08.08.81-.24,1-.53,1.75-2.95,4.35-5.57,3.66-9.47a4,4,0,0,1,.32-1.46l.23.06c.1,1.39.19,2.77.29,4.16l.68,0c1.71-3.67,1.24-7.52,1.09-11.35l-.72-.08c-.18,1.58-.36,3.15-.53,4.73l-.6,0V72.56L67,72.34c-3.09,2.32-3.65,6.37-5.9,9.63l-.62-2.17-1.75,1.1C59.75,77.92,60.75,74.93,61.77,71.94ZM114.58,190c.26-2.95.17-5.27.71-7.44Q118,171.71,121.12,161a25.16,25.16,0,0,1,2.95-6c2.08-3.33,5.17-6.18,9.05-5.75s7.38,2.44,11,4c2.17.94,4.11,2.4,6.24,3.46.52.26,1.86,0,2-.29a3.11,3.11,0,0,0,0-2.51c-3-3.87-4.09-8.43-5.22-13-.58-2.36-.33-4.32,1.55-5.85a9,9,0,0,1,2.95-1.6c4-1.22,8-2.33,11.93-3.48l-.21-1a29.5,29.5,0,0,0-3.12,0c-2.22.22-4.44.78-6.66.8-12.08.12-24.17-.12-36.24.25-8,.24-15.92,1.28-23.88,2-1.2.11-1.88.57-2.46,2.12-.77,2.05.67,2.75,1.06,4.09,1.94,6.57,3.72,13.19,5.46,19.82.47,1.82-.54,2.93-2.39,3a62.15,62.15,0,0,1-8-.11,6.44,6.44,0,0,1-3.69-1.67c-2.83-2.87-5.43-6-8.1-9a1.67,1.67,0,0,1-.32-.92,3.17,3.17,0,0,0-3.33-3.1c-1.78.11-3.54,1.07-5.23,1.82-.21.1-.18,1.4.13,1.86a70.86,70.86,0,0,0,4.63,6.1c.93,1.07,2.42,1.66,3.33,2.75,1.08,1.28,1.64,3,2.71,4.29Q90.54,179.31,104,195.58c2.24,2.72,3.25,2.8,6.29.79a9.22,9.22,0,0,1,4-1.83c2-.13,3.59-.28,3.85-2.86,3.85,1.79,7.41,3.56,11.07,5.11,6.64,2.82,13.32,5.58,20,8.21a48.5,48.5,0,0,0,8.33,2.45c3.73.73,4.81-.08,6.32-3.6,1-2.28,2.32-4.44,3-6.79a89.94,89.94,0,0,0,2.15-9.9,2.1,2.1,0,0,0-.93-1.67,13.91,13.91,0,0,0-4.43-2c-5.18-.82-8-4.1-8-9.44a6.18,6.18,0,0,0-1.17-3.37c-1-1.36-1.38-2.47.11-3.62,1.67-1.3,1-2.66,0-3.9s-2.36-1-3.51-.07a23.54,23.54,0,0,0-2,1.92c-2.69,2.68-5.16,2.2-6.39-1.31-.82-2.36-1.17-4.93-2.28-7.12-1-2-2.44-4.45-4.33-5.41-4.44-2.26-8.76,0-10.24,5-1.55,5.27-2.73,10.64-4.16,16.33a22.89,22.89,0,0,0,4-.74,8.41,8.41,0,0,0,2.11-1.76L126,168.12l1.06-2.67a9,9,0,0,1,1.92,7.94c-1.21,4-3.38,7.74-2.51,12.33-.65-.07-1.43,0-1.51-.18a9.79,9.79,0,0,1-1-3.49c0-2.56,3.08-4.06,2.6-7-.1-.62.55-1.37.85-2.06a15.42,15.42,0,0,0-2.88,0c-1.32.22-2.6.67-4,1-.44.53-1,1.2-1.57,1.91a4.87,4.87,0,0,0-1.11,1.8c-.24,1.6.15,3.39-.43,4.81-.84,2-1.65,3.94-1.15,6.19C116.39,188.92,115.67,189.25,114.58,190ZM157,241.23c-.08-4.63-4.53-7.75-8.28-6.37a16.46,16.46,0,0,1-3.58,1c-4.78.59-6.83,2-7.21,6.85-.44,5.52-.82,11.23.09,16.64,2.38,14.1,3.11,28.3,3.82,42.51.44,9,.51,18,.86,26.95.37,9.3.87,18.6,1.33,27.91.17,3.49.55,7,.54,10.46-.05,10.66-.45,21.32-.32,32,.11,9.4.8,18.78,1.15,28.18.27,7.57.26,15.16.7,22.72a16,16,0,0,0,2.21,6.74c.52.9,2.59,1.35,3.87,1.22.75-.08,1.82-1.67,1.91-2.66.43-4.47.74-9,.74-13.46,0-11.16-.52-22.32-.27-33.47.3-13.15,1.18-26.28,1.8-39.42.49-10.48.94-21,1.48-31.45.21-4.14.82-8.28.9-12.42.29-16.16.59-32.32.59-48.48,0-10.56-.51-21.13-.78-31.69-.05-1.83-.79-2.82-2.76-2.63a7.92,7.92,0,0,1-1.73-.2c-5.55-.72-12.1,3.73-13.46,9.16-.29,1.14-.57,2.28-.85,3.42l-.71-.14c-.18-4.09-1.43-8.48,1.9-11.94C145.58,237.82,151.14,238.42,157,241.23Zm-8.39-18.42c1.4-.15,2.8-.35,4.21-.42,3-.17,5.08-1.36,5.88-4.56.41-1.59.73-2.58-1.23-3.28a4.12,4.12,0,0,1-2.42-2.27c-1-3.75-3.94-4.62-7.06-5.43-.68-.18-1.77-.42-1.9-.87-.7-2.35-2.75-2.7-4.58-3.38-4-1.51-8.07-3-12.16-4.41a4.12,4.12,0,0,0-3,.06c-4.93,2.95-5,3-9.19-.59-1.11-1-2.11-1.45-3.52-.41a16.61,16.61,0,0,1-3.84,2.14c-1.38.54-1.44,1.23-.63,2.22s1.86,2.12,2.78,3.2C121.53,216.1,133.55,222.49,148.59,222.81ZM68.07,128.15c3.1.18,6.08.37,9.06.52a2.93,2.93,0,0,0,2.79-4.3c-.84-1.48-1.86-2.85-2.77-4.29-2.71-4.29-5.69-8.44-8-12.93-1.79-3.48-4.28-4.54-7.87-4.24-4.72.39-9.46.62-14.17,1-1,.08-2.39.48-2.72,1.17s.35,1.93.73,2.88a6.21,6.21,0,0,0,1.07,1.37c3.37,4.08,6.81,8.11,10.09,12.26C59.36,125.53,62,130,68.07,128.15Zm4.62,3.26c-2-3.66-5.73-.16-8.47-2.67a7.4,7.4,0,0,0,6,5.38c-1.63,1.59-.43,2.79.52,4,.35.44.91.73,1.17,1.2,1.38,2.44,2.59,5,4,7.37,1.93,3.15,4.13,6.13,6.06,9.29,1.68,2.75,3.92,4.34,7.19,3.73,1.57-.3,3-1.34,4.57-1.63,1.94-.36,2-1.11,1.33-2.72-3.19-7.4-6.17-14.89-9.49-22.23-1-2.1-2.79-3.8-4.11-5.55l-5.18,6.52a11.83,11.83,0,0,1-1.6,1.9c-.32.26-1,.11-1.46.14.06-.44,0-1,.22-1.29,1.12-1.53,2.32-3,3.49-4.49l-.43-.76Zm.46-101.48-.67-5.37c-.64.14-1.07.1-1.25.29-2.48,2.62-5,5.25-7.33,8-.25.29,0,1.11.12,1.65q1.41,5,2.9,10c.24.78.63,1.52,1.2,2.85,2.86-4.49,6.38-8,4.33-13.34a3.82,3.82,0,0,1-.36-1.69A10.92,10.92,0,0,1,73.15,29.93ZM61.76,32.78a13.56,13.56,0,0,0,2.06-2.94c.75-2.12,1-4.44,1.81-6.52,1-2.56,2.79-4.81,2.86-7.72,0-1.4.15-2.79.27-4.82-2.33,1.79-4.26,2.85-5.61,4.41A41.45,41.45,0,0,0,59,21.59a2.86,2.86,0,0,0,0,1.94C59.8,26.43,60.7,29.29,61.76,32.78ZM17.94,7.27l-1,.34a18.49,18.49,0,0,0,0,3.33c.8,4.24,1.64,8.47,2.62,12.66A48.57,48.57,0,0,0,21.66,30c.18.48,1,.73,1.48,1.09.27-.46.79-.93.77-1.38-.15-5,.18-10-.83-14.83C22.5,12.09,19.73,9.79,17.94,7.27ZM78.16,78.66A6.43,6.43,0,0,0,80,72.84c-.39-3.11-.66-6.24-1.13-9.34-.29-1.91-.85-3.77-1.34-5.86-2.65,2.11-4.65,5.55-4,7.53C74.84,69.52,76.46,73.78,78.16,78.66ZM32.29,58.43c.49-.7,1.39-1.52,1.23-1.86a3.51,3.51,0,0,0-1.86-1.4,5.22,5.22,0,0,0-2.2-.28c-3.2.17-6.39.39-9.59.62-1.24.09-2.48.16-3.7.37a1.66,1.66,0,0,0-1,.88c-.08.19.3.82.58.92,5.29,1.74,10.62,3.24,16.28,2.36.29,0,.53-.35.88-.59ZM74.56,83.92l-.84-.84c-2,1.91-4,3.81-6,5.74-1.21,1.18-1.37,2.19.79,2.51a9.13,9.13,0,0,0-1.62,2.4A10,10,0,0,0,67,96.66c.92-.13,2,0,2.72-.44,3.89-2.76,5.6-7.06,7.55-11.17.1-.2-.17-.57-.43-1.37l-7.17,6.44-.57-.59Zm.74,25.4-1,2a10.24,10.24,0,0,0,2.13.49c.86,0,1.73-.35,2.59-.31.54,0,1.06.48,2,1l-5.43,1.7c.14.64.09,1.36.37,1.55,1.32.84,2.72,1.54,4.1,2.29,0-1.07-.09-2.14-.12-3.22,0-.07,0-.15-.13.4,1.06-1.06,2.28-1.75,2.24-2.34A23,23,0,0,0,81,108.36l1.94-2.13-3.24-.67-1.8-2.26-.29,3-4.32,1.09-.19.63ZM44.47,39.78,44,39.52c-.3.24-.7.43-.88.75C41,43.94,38.91,47.59,37,51.33a4.83,4.83,0,0,0-.27,2.9,1.61,1.61,0,0,0,2.93.85A25.63,25.63,0,0,0,43.4,50.2c.75-1.38,1.52-4.23,1.07-4.51-1.76-1.11-.63-2.24-.55-3.32A19.25,19.25,0,0,1,44.47,39.78Zm2.25,40c-1.74-3.2-2.56-6.61-6.46-6.72a31.75,31.75,0,0,0-5.89.62c-.62.1-1.16.7-1.74,1.08.51.59.92,1.54,1.55,1.72C38.2,77.63,42.27,78.62,46.72,79.77Zm-6.11,10,.06.72a10,10,0,0,1,5.4,1.32c3.11,1.58,8.73-1.33,10.18-4.48-2-1.85-4.09-1.51-6.41-.69s-5,1.4-7.51,2.16A8.67,8.67,0,0,0,40.61,89.81Zm35.63-34,.89-.46c-1.41-4.11-2.81-8.22-4.4-12.87-3.11,4.71-2.23,12.17,1.3,15l.3-2.49ZM46.24,123c-.13.68-.51,1.51-.27,1.75a2.47,2.47,0,0,0,1.77.54c1.3-.08,2.59-.35,3.73-.52l2.12,4.14.69-.41-1-4.22,2.49,1.39c.08-1.81-.06-3-2.05-2.84a16.36,16.36,0,0,1-2.71.06,4.58,4.58,0,0,1-1.38-.55l1.14-1,1.54-1.25c-.73-.44-1.45-1.26-2.17-1.26a20.56,20.56,0,0,0-4.72.65,11.53,11.53,0,0,0-2.32,1.07,19.15,19.15,0,0,0,1.84,2.07C45.26,122.93,45.85,122.9,46.24,123Zm-9.12-16.24-.91.47a21.16,21.16,0,0,1,1.31,4c.71,5.9,2.58,7.38,8.42,6.41.24,0,.56.07.73,0,.49-.35.92-.77,1.37-1.16-.48-.45-.95-1.27-1.45-1.28-1.47,0-3,.34-4.42.31a7.85,7.85,0,0,1-2.37-.87l.26-.78,4.13-.67c-.27-2.07-1.16-2.85-3-2.45-1.39.3-2.69.53-2.52-1.75C38.67,108.24,37.65,107.48,37.12,106.75Zm25.48-69c-.91-.16-1.37-.39-1.68-.26-2.05.88-4.1,1.77-6.09,2.79-1.34.69-1.58,3.53-.45,4.37.72.52,1.47,1,2.38,1.6.49-2,1-3.91,1.44-5.82l.67.1V50.67C60.16,49,61.5,47.34,60,45.26a1.47,1.47,0,0,1,0-1.18C60.79,42.09,61.62,40.11,62.6,37.76ZM24.94,63.17c1,2.33,6,5,8.1,4.53.36-.09.87-.34,1-.62.52-1.82,1.85-2.11,3.48-2.08a1.35,1.35,0,0,0,1.08-.71,1.51,1.51,0,0,0-.62-1.19,3.45,3.45,0,0,0-1.87-.62C32.37,62.65,28.69,62.92,24.94,63.17ZM35,35c-2.85,3.36-3.73,13.29-1.54,15.75C36.32,48.15,37.29,38.89,35,35ZM53,50.33c-.87,1.14-1.77,2.24-2.57,3.42s-1.31,2.11.16,3.58,2.21,3.82,3.31,5.87C56.35,59.11,56.3,54.87,53,50.33Zm-3.3,21.53V60.09c-4.47,3.27-5.39,11.68-1.73,14.59v-3ZM19.82,68.52c2.31,5.13,10.94,6,15.89,1.69ZM58.05,17.6c2.58-2.74,4.93-5.25,7.48-8-2.76-.76-8.16.22-8.6,1.6A7.34,7.34,0,0,0,58.05,17.6Zm-17,44.83c2.53-2,6.19-11.14,5.21-13.3A68.09,68.09,0,0,1,42,54.89C39.88,57.26,39.34,59.65,41.09,62.43Zm19.34,74.72c.24.9,1,2.08.69,2.78-1.13,2.54.77,3.14,2.24,4.29,1.31-1.57,4-2.23,3.22-4.8C65.76,136.63,63.29,136.65,60.43,137.15ZM57,95.83a3.75,3.75,0,0,0-4.54-2.33c-2.83.59-5.65,1.3-8.44,2.06a3.51,3.51,0,0,0-1.44,1.18c-.06.07.4.88.6.87.78,0,2.07-.06,2.23-.47.65-1.64,1.9-1.31,3.11-1.31ZM51.09,78.57l.92,0c1.26-2.27.78-6.94-1.35-9.57C50.82,72.52,51,75.55,51.09,78.57Zm121.35,90.72c-3.74,1.51-4.65,2.31-4.62,4a21.55,21.55,0,0,0,4.74-1.33,24.58,24.58,0,0,0,3.95-3.32l-.47-.55-3.18,2.36ZM80.29,122.17l1.45.57c-.39-2.7,4-3.83,1-7.4Zm6.11-12.66c.64-2.34,2.39-4.3-.17-6.17C83.89,106.47,83.89,106.47,86.4,109.51ZM59.73,93.66c.19-2.47.24-4-1.72-4-.75,0-1.49,1.19-2.23,1.85Zm-4.69,5c-.59-1.79-4.11-2.43-7-1.3ZM77.75,94,74,95.7c.35,1.71,1.92,1.32,3.09,1C78.72,96.14,78.58,95,77.75,94Zm-36-26.25c-.38,3.32.41,4.18,3.25,3.89Zm62.59,417.76.35,1.34,2.87-.79c-.12-.35-.27-1-.36-1C106.25,485.13,105.3,485.32,104.35,485.48Z"/><path class="cls-1" d="M189.33,162.74a24.3,24.3,0,0,1,2.87-1.37c4.37-1.46,4.71-2.11,4.48-6.62a4.65,4.65,0,0,1,1.55-3.31c2.91-2.4,3.41-4.6.67-7.17-1.39-1.31-3.51-2-5.41-2.61-2.62-.88-5.35-1.44-8-2.22-.38-.11-.62-.68-1.14-1.28l5-1-.07-.89c-2.46-.49-4.93-.94-7.37-1.49-.94-.21-1.81-.7-2.73-1-1.92-.62-1.62-1.56-.43-2.66a8.13,8.13,0,0,0,1-.76c.44-.52.8-1.12,1.19-1.68l1.06,1.63c2.2.59,4.6.64,6.15,1.8,2.49,1.87,4.43,1,6.67-.37,1.58,3.59-2.8,2.65-3.13,4.75,1.32,1.11,2.41.37,3.34-.58,1.52-1.55,2.61-.87,3.69.5,3.16,4,4,8.66,4.18,13.62a7.39,7.39,0,0,0,2,4c2.55,3,2.46,4.58-1.21,6a93.09,93.09,0,0,1-10.1,2.66l-3.75,1Z"/><path class="cls-1" d="M91.59,96c1-.1,1.85-.26,2.68-.26,18.49.07,37,.11,55.46.25,4.15,0,8.31.63,12.46.6,7.07-.06,14.13-.43,21.19-.63,5.15-.15,10.3-.28,15.44-.34a18.22,18.22,0,0,1,3,.43l0,.89a28.44,28.44,0,0,1-4.95.83c-8.49-.06-17-.34-25.47-.4q-38.81-.27-77.62-.44a12.57,12.57,0,0,1-1.72-.19C92,96.75,91.92,96.53,91.59,96Z"/><path class="cls-1" d="M147.05,489.74c-4.9.15-8.18-2.68-11.07-6.12a2.08,2.08,0,0,1-.13-2c.33-.43,1.3-.44,2-.47a1.74,1.74,0,0,1,1.13.48c4.22,3.86,9.46,3.23,14.48,3,1.5-.06,2.93-1.59,4.44-2.37,1-.49,2.29-1.44,2.95-1.13,1.34.63,2.33,2,3.47,3-.81.84-1.48,2.16-2.44,2.43-4.15,1.15-8.38,2-12.59,2.93A18.46,18.46,0,0,1,147.05,489.74Z"/><path class="cls-1" d="M206.54,101c-22.11,2.92-44.23,1.93-66.35,1.1C162.29,99.17,184.45,102.73,206.54,101Z"/><path class="cls-1" d="M141.92,477.27c1.78-3.63,3.3-6.79,4.91-9.91a1.39,1.39,0,0,1,1.27-.45,1.76,1.76,0,0,1,.77,1.34,29.82,29.82,0,0,1-1.26,6.85C146.79,477.21,144.54,477.16,141.92,477.27Z"/><path class="cls-1" d="M207.66,161.07c.05-4.12,1-8-1.21-11.89-1.8-3.2-2.63-6.94-3.9-10.43l.95-.41a7.72,7.72,0,0,1,1.35,1.83c1.25,3.63,2.25,7.34,3.62,10.92a11.69,11.69,0,0,1,.32,8.25A8.56,8.56,0,0,1,207.66,161.07Z"/><path class="cls-1" d="M160.34,136c1.46,1.84,2.52,3.74,1,5.82-.68.93-4.08-.31-4.83-1.59S157,137.46,160.34,136Z"/><path class="cls-1" d="M5.66,24.05a17,17,0,0,0,3.19,0,22.67,22.67,0,0,0,3.55-1.38l3.2,2.87-.26.84L5.68,24.71Z"/><path class="cls-1" d="M185.52,167.22,202,162.69l.22.84-16.46,4.52Z"/><path class="cls-1" d="M28,19.63c.45-1.54.81-3.12,1.4-4.6.18-.45,1-.62,1.55-.92a6.53,6.53,0,0,1,.78,1.44c.23.95.31,1.94.52,3.34-1.89-1.33-3.36-1.37-4.29.68Z"/><path class="cls-1" d="M6.35,6.81c-1.6-2-4.92-1.75-5.89-4.55C.27,1.71.15,1.13,0,.56L.87,0,6.29,6.87Z"/><path class="cls-1" d="M139.41,490.28c-2.42,1.54-3.56.78-4.35-.46-.24-.39.27-1.25.43-1.9Z"/><path class="cls-1" d="M5.47,35.17l3.89-.72C8.08,37,8,37,5.47,35.17Z"/><path class="cls-1" d="M134,193.81a18.26,18.26,0,0,1,3-.11,63.13,63.13,0,0,1,7.38,1.24c3.41.88,6.08,0,9.12-1.8,2.34-1.34,5.67-1,8.58-1.21a3.58,3.58,0,0,1,.83,2.59,44.63,44.63,0,0,1-3.15,6.49,4.78,4.78,0,0,1-6.42,2.17c-1.47-.58-2.88-1.31-4.3-2C144.15,198.8,139.27,196.4,134,193.81Z"/><path class="cls-1" d="M115.73,151c-1.11-.89-1.42-2.06-.29-3,1.45-1.14,3-.68,4.27.55,1.05,1,1.6,2.53.31,3.48-.82.6-2.35.35-3.55.24-.31,0-.55-.93-.82-1.44a17.91,17.91,0,0,0,3,.46c.17,0,.64-1.46.47-1.59-.64-.49-1.66-1.13-2.22-.91S116.1,150.2,115.73,151Z"/><path class="cls-1" d="M140,159.24l-6.16,2.7c-.13-.36-.41-.74-.37-1.08.21-1.67,4-3.63,5.45-2.83C139.34,158.24,139.58,158.7,140,159.24Z"/><path class="cls-1" d="M146.94,379.46a6.58,6.58,0,0,1-.47-1.49c-.45-10.64-1-21.28-1.27-31.93-.27-11.15-.61-22.32-.27-33.47.39-13.06-1.34-25.92-2.59-38.84-.32-3.23-1-6.42-1.27-9.65-.08-.72.51-1.5.79-2.26.68.51,1.81.89,2,1.53a40.62,40.62,0,0,1,1.28,7.33c1.07,15.86,2.49,31.72,2.92,47.6s-.16,32-.26,48c0,3.58.17,7.16.19,10.74a14.12,14.12,0,0,1-.4,2.47Z"/><path class="cls-1" d="M146.84,392c1.65,20.51,1.46,41.09,1.74,61.81a6.87,6.87,0,0,1-.73-1.94c-.42-9.63-.83-19.26-1.15-28.89-.29-8.32-.48-16.64-.68-25-.05-2,0-4,0-5.95Z"/></g></g></svg>